<svg id="_ÎÓÈ_4" data-name="—ÎÓÈ_4" xmlns="http://www.w3.org/2000/svg" viewBox="0 0 281.8 281.8"><defs><style>.cls-1{fill:#fff;}</style></defs><title>Play button</title><path class="cls-1" d="M150.33,289.72A142.39,142.39,0,0,1,37.46,234.13,142.37,142.37,0,0,1,48,48.31l.15-.15.19-.19a141.68,141.68,0,0,1,99-40c78.52,0,142.41,63.88,142.41,142.41,0,4.59-.23,9.25-.68,13.87a142.73,142.73,0,0,1-39.37,85.13l-.15.15-.19.19A141.72,141.72,0,0,1,150.33,289.72Zm-3-265.46A125.45,125.45,0,0,0,59.67,59.71,126.07,126.07,0,0,0,238,237.93a126.26,126.26,0,0,0,34.81-75.31c.4-4.09.6-8.23.6-12.29A126.21,126.21,0,0,0,147.31,24.26Z" transform="translate(-7.92 -7.92)"/><path class="cls-1" d="M125.9,217.61c-8.75,6.66-15.91,3.12-15.91-7.88V88.06c0-11,7.26-14.68,16.14-8.19l82,55.59c12.07,8.91,9,17.26.23,23.93Z" transform="translate(-7.92 -7.92)"/></svg>