<?xml version="1.0" encoding="utf-8"?>
<!-- Generator: Adobe Illustrator 23.0.1, SVG Export Plug-In . SVG Version: 6.00 Build 0)  -->
<svg version="1.1" id="Laag_1" xmlns="http://www.w3.org/2000/svg" xmlns:xlink="http://www.w3.org/1999/xlink" x="0px" y="0px"
	 viewBox="0 0 212.6 136.1" style="enable-background:new 0 0 212.6 136.1;" xml:space="preserve">
<path d="M207.4,77.3c0.1-0.2,0.3-0.4,0.4-0.5c0.1-0.2,0.3-0.4,0.4-0.6c0.1-0.2,0.3-0.4,0.4-0.6c0.1-0.2,0.2-0.4,0.3-0.6
	c0.1-0.2,0.2-0.4,0.3-0.7c0.1-0.2,0.2-0.4,0.3-0.6c0.1-0.2,0.2-0.4,0.2-0.7c0.1-0.2,0.2-0.4,0.2-0.7c0.1-0.2,0.1-0.4,0.2-0.7
	c0.1-0.2,0.1-0.5,0.2-0.7c0.1-0.3,0.1-0.5,0.1-0.8c0-0.2,0.1-0.4,0.1-0.6c0.1-0.9,0.1-1.9,0-2.8c0-0.2-0.1-0.4-0.1-0.6
	c0-0.2-0.1-0.5-0.1-0.7c0-0.2-0.1-0.5-0.2-0.7c-0.1-0.2-0.1-0.4-0.2-0.6c-0.1-0.2-0.2-0.5-0.2-0.7c-0.1-0.2-0.1-0.4-0.2-0.6
	c-0.1-0.2-0.2-0.4-0.3-0.6c-0.1-0.2-0.2-0.4-0.3-0.6c-0.1-0.2-0.2-0.4-0.4-0.6c-0.1-0.2-0.2-0.4-0.4-0.6c-0.2-0.2-0.3-0.4-0.5-0.7
	c-0.1-0.2-0.2-0.3-0.4-0.5c-0.3-0.4-0.7-0.8-1-1.1c0,0,0,0-0.1-0.1L155.6,7.3c-5.6-5.6-14.7-5.6-20.2,0c-5.6,5.6-5.6,14.7,0,20.2
	l26.4,26.4H16.1c-7.9,0-14.3,6.4-14.3,14.3c0,7.9,6.4,14.3,14.3,14.3h145.6l-26.2,26.2c-5.6,5.6-5.6,14.7,0,20.2
	c2.8,2.8,6.5,4.2,10.1,4.2c3.7,0,7.3-1.4,10.1-4.2l50.7-50.7c0,0,0,0,0,0C206.8,78,207.1,77.7,207.4,77.3z"/>
</svg>
