<?xml version="1.0" encoding="utf-8"?>
<!-- Generator: Adobe Illustrator 23.0.1, SVG Export Plug-In . SVG Version: 6.00 Build 0)  -->
<svg version="1.1" id="_ÎÓÈ_4" xmlns="http://www.w3.org/2000/svg" xmlns:xlink="http://www.w3.org/1999/xlink" x="0px" y="0px"
	 viewBox="0 0 281.8 281.8" style="enable-background:new 0 0 281.8 281.8;" xml:space="preserve">
<style type="text/css">
	.st0{fill:#1D1D1B;}
</style>
<title>Up Button</title>
<path class="st0" d="M0,142.4C0,98.2,20.6,56.5,55.6,29.5c56-43.1,135.1-38.6,185.8,10.5l0.2,0.2l0.2,0.2c25.7,26.5,40.1,62,40,99
	c0,78.5-63.9,142.4-142.4,142.4c-4.6,0-9.2-0.2-13.9-0.7c-32-3.2-62-17-85.1-39.4l-0.1-0.1l-0.2-0.2C14.3,214.9,0,179.4,0,142.4z
	 M265.5,139.4c0.1-32.7-12.7-64.2-35.4-87.7C180.2,3.2,100.4,4.2,51.8,54.1c-47.7,49-47.7,127,0.1,176c20.5,19.8,47,32,75.3,34.8
	c4.1,0.4,8.2,0.6,12.3,0.6C209,265.4,265.4,209,265.5,139.4L265.5,139.4z"/>
<path class="st0" d="M177.9,131.2l-54.5-54.5c-5.5-5.3-14.2-5.1-19.5,0.4c-5.1,5.3-5.1,13.7,0,19l44.8,44.8L104,185.7
	c-5.1,5.7-4.6,14.4,1.1,19.4c5.2,4.7,13.1,4.7,18.4,0l54.5-54.5C183.3,145.2,183.3,136.5,177.9,131.2z"/>
</svg>
